<mxfile host="65bd71144e">
    <diagram id="bfTU1tXLVHFTI08LKgHY" name="Page-1">
        <mxGraphModel dx="537" dy="580" grid="1" gridSize="10" guides="1" tooltips="1" connect="1" arrows="1" fold="1" page="1" pageScale="1" pageWidth="827" pageHeight="1169" math="0" shadow="0">
            <root>
                <mxCell id="0"/>
                <mxCell id="1" parent="0"/>
                <mxCell id="4" style="edgeStyle=orthogonalEdgeStyle;html=1;exitX=0.5;exitY=1;exitDx=0;exitDy=0;entryX=0;entryY=0.5;entryDx=0;entryDy=0;curved=1;" parent="1" source="2" target="3" edge="1">
                    <mxGeometry relative="1" as="geometry"/>
                </mxCell>
                <mxCell id="6" style="edgeStyle=orthogonalEdgeStyle;curved=1;html=1;exitX=0.5;exitY=1;exitDx=0;exitDy=0;entryX=0;entryY=0.5;entryDx=0;entryDy=0;" parent="1" source="2" target="5" edge="1">
                    <mxGeometry relative="1" as="geometry"/>
                </mxCell>
                <mxCell id="8" style="edgeStyle=orthogonalEdgeStyle;curved=1;html=1;exitX=0.5;exitY=1;exitDx=0;exitDy=0;entryX=0;entryY=0.5;entryDx=0;entryDy=0;" parent="1" source="2" target="7" edge="1">
                    <mxGeometry relative="1" as="geometry"/>
                </mxCell>
                <mxCell id="10" style="edgeStyle=orthogonalEdgeStyle;curved=1;html=1;exitX=0.5;exitY=1;exitDx=0;exitDy=0;entryX=0;entryY=0.5;entryDx=0;entryDy=0;" parent="1" source="2" target="9" edge="1">
                    <mxGeometry relative="1" as="geometry"/>
                </mxCell>
                <mxCell id="2" value="PASOS GENERALES" style="rounded=0;whiteSpace=wrap;html=1;fillColor=#6a00ff;fontColor=#ffffff;strokeColor=#3700CC;" parent="1" vertex="1">
                    <mxGeometry x="40" y="80" width="120" height="60" as="geometry"/>
                </mxCell>
                <mxCell id="3" value="Traducir los textos básicos de la web" style="rounded=0;whiteSpace=wrap;html=1;fillColor=#1ba1e2;fontColor=#ffffff;strokeColor=#006EAF;" parent="1" vertex="1">
                    <mxGeometry x="160" y="170" width="120" height="60" as="geometry"/>
                </mxCell>
                <mxCell id="5" value="Traducir utilidades de Angular (DatePipe, decimalPipe, etc)" style="rounded=0;whiteSpace=wrap;html=1;fillColor=#1ba1e2;fontColor=#ffffff;strokeColor=#006EAF;" parent="1" vertex="1">
                    <mxGeometry x="160" y="250" width="120" height="60" as="geometry"/>
                </mxCell>
                <mxCell id="7" value="Traducir los componentes de Angular" style="rounded=0;whiteSpace=wrap;html=1;fillColor=#1ba1e2;fontColor=#ffffff;strokeColor=#006EAF;" parent="1" vertex="1">
                    <mxGeometry x="160" y="330" width="120" height="60" as="geometry"/>
                </mxCell>
                <mxCell id="9" value="Traducir los módulos de terceros (calendarios, editores, etc)" style="rounded=0;whiteSpace=wrap;html=1;fillColor=#1ba1e2;fontColor=#ffffff;strokeColor=#006EAF;" parent="1" vertex="1">
                    <mxGeometry x="160" y="410" width="120" height="60" as="geometry"/>
                </mxCell>
                <mxCell id="11" value="@ngx-translate/core" style="shape=document;whiteSpace=wrap;html=1;boundedLbl=1;fillColor=#60a917;fontColor=#ffffff;strokeColor=#2D7600;" parent="1" vertex="1">
                    <mxGeometry x="320" y="80" width="120" height="80" as="geometry"/>
                </mxCell>
                <mxCell id="12" value="@ngx-translate/http-loader" style="shape=document;whiteSpace=wrap;html=1;boundedLbl=1;fillColor=#60a917;fontColor=#ffffff;strokeColor=#2D7600;" parent="1" vertex="1">
                    <mxGeometry x="450" y="80" width="120" height="80" as="geometry"/>
                </mxCell>
                <mxCell id="14" style="edgeStyle=orthogonalEdgeStyle;curved=1;html=1;exitX=1;exitY=0.5;exitDx=0;exitDy=0;entryX=0.75;entryY=0;entryDx=0;entryDy=0;" parent="1" source="13" target="11" edge="1">
                    <mxGeometry relative="1" as="geometry"/>
                </mxCell>
                <mxCell id="15" style="edgeStyle=orthogonalEdgeStyle;curved=1;html=1;exitX=1;exitY=0.5;exitDx=0;exitDy=0;entryX=0.5;entryY=0;entryDx=0;entryDy=0;" parent="1" source="13" target="12" edge="1">
                    <mxGeometry relative="1" as="geometry"/>
                </mxCell>
                <mxCell id="13" value="PAQUETES NECESARIOS" style="rounded=0;whiteSpace=wrap;html=1;fillColor=#6a00ff;fontColor=#ffffff;strokeColor=#3700CC;" parent="1" vertex="1">
                    <mxGeometry x="40" y="10" width="120" height="60" as="geometry"/>
                </mxCell>
                <mxCell id="20" style="edgeStyle=orthogonalEdgeStyle;curved=1;html=1;exitX=0.5;exitY=1;exitDx=0;exitDy=0;entryX=0.5;entryY=0;entryDx=0;entryDy=0;fontColor=#C7C7C7;" parent="1" source="16" target="17" edge="1">
                    <mxGeometry relative="1" as="geometry"/>
                </mxCell>
                <mxCell id="16" value="&lt;h1&gt;Paso 1&lt;/h1&gt;&lt;p&gt;Instalamos los paquetes&lt;/p&gt;&lt;p&gt;npm install @ngx-translate/core @ngx-translate/http-loader --save&lt;/p&gt;" style="text;html=1;strokeColor=#314354;fillColor=#647687;spacing=5;spacingTop=-20;whiteSpace=wrap;overflow=hidden;rounded=0;fontColor=#C7C7C7;" parent="1" vertex="1">
                    <mxGeometry x="40" y="520" width="360" height="100" as="geometry"/>
                </mxCell>
                <mxCell id="19" style="edgeStyle=orthogonalEdgeStyle;curved=1;html=1;exitX=1;exitY=0.5;exitDx=0;exitDy=0;entryX=0;entryY=0.5;entryDx=0;entryDy=0;fontColor=#C7C7C7;" parent="1" source="17" target="18" edge="1">
                    <mxGeometry relative="1" as="geometry"/>
                </mxCell>
                <mxCell id="22" style="edgeStyle=orthogonalEdgeStyle;curved=1;html=1;exitX=0.5;exitY=1;exitDx=0;exitDy=0;entryX=0.5;entryY=0;entryDx=0;entryDy=0;fontColor=#C7C7C7;" parent="1" source="17" target="21" edge="1">
                    <mxGeometry relative="1" as="geometry"/>
                </mxCell>
                <mxCell id="17" value="&lt;h1&gt;Paso 2&lt;/h1&gt;&lt;p&gt;A continuacion añadir TranslateModule.forRoot() en la lista de imports de AppModule.&lt;/p&gt;&lt;p&gt;Ver forma en imagen adjunta.&lt;/p&gt;" style="text;html=1;strokeColor=#314354;fillColor=#647687;spacing=5;spacingTop=-20;whiteSpace=wrap;overflow=hidden;rounded=0;fontColor=#C7C7C7;labelPadding=0;perimeter=rectanglePerimeter;collapsible=0;metaEdit=0;" parent="1" vertex="1">
                    <mxGeometry x="40" y="680" width="360" height="110" as="geometry"/>
                </mxCell>
                <UserObject label="https://www.digital55.com/wp-content/uploads/2020/07/img1.png?x72330" link="https://www.digital55.com/wp-content/uploads/2020/07/img1.png?x72330" id="18">
                    <mxCell style="text;whiteSpace=wrap;html=1;fillColor=#6d8764;fontColor=#ffffff;strokeColor=#3A5431;" parent="1" vertex="1">
                        <mxGeometry x="480" y="720" width="410" height="30" as="geometry"/>
                    </mxCell>
                </UserObject>
                <mxCell id="24" style="edgeStyle=orthogonalEdgeStyle;curved=1;html=1;exitX=1;exitY=0.5;exitDx=0;exitDy=0;entryX=0;entryY=0.5;entryDx=0;entryDy=0;fontColor=#C7C7C7;" parent="1" source="21" target="23" edge="1">
                    <mxGeometry relative="1" as="geometry"/>
                </mxCell>
                <mxCell id="26" style="edgeStyle=orthogonalEdgeStyle;curved=1;html=1;exitX=0.5;exitY=1;exitDx=0;exitDy=0;entryX=0.5;entryY=0;entryDx=0;entryDy=0;fontColor=#C7C7C7;" parent="1" source="21" target="25" edge="1">
                    <mxGeometry relative="1" as="geometry"/>
                </mxCell>
                <mxCell id="21" value="&lt;h1&gt;Paso 3&lt;/h1&gt;&lt;p&gt;En el AppComponent, inicializamos TranslateService e indicamos el idioma a usar y el idioma que tenga el usuario establecido en su navegador. En este caso indicaremos que el inglés es el idioma por defecto.&lt;/p&gt;&lt;p&gt;Ver forma en imagen adjunta.&lt;/p&gt;" style="text;html=1;strokeColor=#314354;fillColor=#647687;spacing=5;spacingTop=-20;whiteSpace=wrap;overflow=hidden;rounded=0;fontColor=#C7C7C7;labelPadding=0;perimeter=rectanglePerimeter;collapsible=0;metaEdit=0;" parent="1" vertex="1">
                    <mxGeometry x="40" y="850" width="360" height="110" as="geometry"/>
                </mxCell>
                <UserObject label="https://www.digital55.com/wp-content/uploads/2020/07/img2.png?x72330" link="https://www.digital55.com/wp-content/uploads/2020/07/img2.png?x72330" id="23">
                    <mxCell style="text;whiteSpace=wrap;html=1;fontColor=#ffffff;fillColor=#6d8764;strokeColor=#3A5431;" parent="1" vertex="1">
                        <mxGeometry x="480" y="890" width="410" height="30" as="geometry"/>
                    </mxCell>
                </UserObject>
                <mxCell id="28" style="edgeStyle=orthogonalEdgeStyle;curved=1;html=1;exitX=0.5;exitY=1;exitDx=0;exitDy=0;entryX=0.5;entryY=0;entryDx=0;entryDy=0;fontColor=#C7C7C7;" parent="1" source="25" target="27" edge="1">
                    <mxGeometry relative="1" as="geometry"/>
                </mxCell>
                <mxCell id="25" value="&lt;h1&gt;Paso 4&lt;/h1&gt;&lt;p&gt;&lt;span&gt;Crea un módulo llamado SharedModule (que importaremos en el resto de los módulos) y añadiremos translate módules a la lista de los exports. Esto nos dará acceso a la pope Translate en todos nuestros componentes, de forma que podremos traducir directamente desde el template HTML.&lt;/span&gt;&lt;br&gt;&lt;/p&gt;" style="text;html=1;strokeColor=#314354;fillColor=#647687;spacing=5;spacingTop=-20;whiteSpace=wrap;overflow=hidden;rounded=0;fontColor=#C7C7C7;labelPadding=0;perimeter=rectanglePerimeter;collapsible=0;metaEdit=0;" parent="1" vertex="1">
                    <mxGeometry x="40" y="1020" width="360" height="130" as="geometry"/>
                </mxCell>
                <mxCell id="31" style="edgeStyle=orthogonalEdgeStyle;curved=1;html=1;exitX=1;exitY=0.5;exitDx=0;exitDy=0;entryX=0;entryY=0.5;entryDx=0;entryDy=0;fontColor=#C7C7C7;" parent="1" source="27" target="29" edge="1">
                    <mxGeometry relative="1" as="geometry"/>
                </mxCell>
                <mxCell id="32" style="edgeStyle=orthogonalEdgeStyle;curved=1;html=1;exitX=1;exitY=0.5;exitDx=0;exitDy=0;entryX=0;entryY=0.5;entryDx=0;entryDy=0;fontColor=#C7C7C7;" parent="1" source="27" target="30" edge="1">
                    <mxGeometry relative="1" as="geometry"/>
                </mxCell>
                <mxCell id="34" style="edgeStyle=orthogonalEdgeStyle;curved=1;html=1;exitX=0.5;exitY=1;exitDx=0;exitDy=0;entryX=0.5;entryY=0;entryDx=0;entryDy=0;fontColor=#C7C7C7;" parent="1" source="27" target="33" edge="1">
                    <mxGeometry relative="1" as="geometry"/>
                </mxCell>
                <mxCell id="27" value="&lt;h1&gt;Paso 5&lt;/h1&gt;&lt;p&gt;&lt;span&gt;Finalmente dentro de la carpeta assets del proyecto, creamos una carpeta i18n y un archivo JSON para cada idioma al que daremos soporte (es.json, en.json, etc) para probar que todo funciona, añadiremos una clave a cada archivo con la traducción correspondiente.&lt;/span&gt;&lt;br&gt;&lt;/p&gt;" style="text;html=1;strokeColor=#314354;fillColor=#647687;spacing=5;spacingTop=-20;whiteSpace=wrap;overflow=hidden;rounded=0;fontColor=#C7C7C7;labelPadding=0;perimeter=rectanglePerimeter;collapsible=0;metaEdit=0;" parent="1" vertex="1">
                    <mxGeometry x="40" y="1210" width="360" height="130" as="geometry"/>
                </mxCell>
                <UserObject label="https://www.digital55.com/wp-content/uploads/2020/07/img3.png?x72330" link="https://www.digital55.com/wp-content/uploads/2020/07/img3.png?x72330" id="29">
                    <mxCell style="text;whiteSpace=wrap;html=1;fontColor=#ffffff;fillColor=#6d8764;strokeColor=#3A5431;" parent="1" vertex="1">
                        <mxGeometry x="480" y="1230" width="410" height="30" as="geometry"/>
                    </mxCell>
                </UserObject>
                <UserObject label="https://www.digital55.com/wp-content/uploads/2020/07/img4.png?x72330" link="https://www.digital55.com/wp-content/uploads/2020/07/img4.png?x72330" id="30">
                    <mxCell style="text;whiteSpace=wrap;html=1;fontColor=#ffffff;fillColor=#6d8764;strokeColor=#3A5431;" parent="1" vertex="1">
                        <mxGeometry x="480" y="1290" width="410" height="30" as="geometry"/>
                    </mxCell>
                </UserObject>
                <mxCell id="36" style="edgeStyle=orthogonalEdgeStyle;curved=1;html=1;exitX=1;exitY=0.5;exitDx=0;exitDy=0;fontColor=#C7C7C7;" parent="1" source="33" target="35" edge="1">
                    <mxGeometry relative="1" as="geometry"/>
                </mxCell>
                <mxCell id="38" style="edgeStyle=orthogonalEdgeStyle;curved=1;html=1;exitX=0.5;exitY=1;exitDx=0;exitDy=0;entryX=0.5;entryY=0;entryDx=0;entryDy=0;fontColor=#C7C7C7;" parent="1" source="33" target="37" edge="1">
                    <mxGeometry relative="1" as="geometry"/>
                </mxCell>
                <mxCell id="33" value="&lt;h1&gt;Paso 6&lt;/h1&gt;&lt;p&gt;&lt;span&gt;En el componente que queremos probar la traducción (por ejemplo, AppComponent), añadimos la clave al template HTML y utilizamos el pipe translate para obtener la traducción&lt;/span&gt;&lt;br&gt;&lt;/p&gt;" style="text;html=1;strokeColor=#314354;fillColor=#647687;spacing=5;spacingTop=-20;whiteSpace=wrap;overflow=hidden;rounded=0;fontColor=#C7C7C7;labelPadding=0;perimeter=rectanglePerimeter;collapsible=0;metaEdit=0;" parent="1" vertex="1">
                    <mxGeometry x="40" y="1400" width="360" height="130" as="geometry"/>
                </mxCell>
                <mxCell id="35" value="&amp;lt;p&amp;gt;{{ 'hello' | translate }}&amp;lt;/p&amp;gt;" style="dashed=0;outlineConnect=0;html=1;align=center;labelPosition=center;verticalLabelPosition=bottom;verticalAlign=top;shape=mxgraph.weblogos.json_2;fontColor=#C7C7C7;" parent="1" vertex="1">
                    <mxGeometry x="590" y="1452.4" width="80.4" height="25.200000000000003" as="geometry"/>
                </mxCell>
                <mxCell id="40" style="edgeStyle=orthogonalEdgeStyle;curved=1;html=1;exitX=1;exitY=0.5;exitDx=0;exitDy=0;entryX=0;entryY=0.5;entryDx=0;entryDy=0;fontColor=#C7C7C7;" parent="1" source="37" target="39" edge="1">
                    <mxGeometry relative="1" as="geometry"/>
                </mxCell>
                <mxCell id="42" style="edgeStyle=orthogonalEdgeStyle;curved=1;html=1;exitX=0.5;exitY=1;exitDx=0;exitDy=0;entryX=0.5;entryY=0;entryDx=0;entryDy=0;fontColor=#C7C7C7;" parent="1" source="37" target="41" edge="1">
                    <mxGeometry relative="1" as="geometry"/>
                </mxCell>
                <mxCell id="37" value="&lt;h1&gt;Paso 7&lt;/h1&gt;&lt;p&gt;&lt;span&gt;Si necesitamos mostrar texto desde la parte ts del componente (por ejemplo, mostrar una alerta con un error), creamos una instancia de TranslateService en el componente y utilizamos el método instant() pasándole la clave a introducir.&lt;/span&gt;&lt;br&gt;&lt;/p&gt;" style="text;html=1;strokeColor=#314354;fillColor=#647687;spacing=5;spacingTop=-20;whiteSpace=wrap;overflow=hidden;rounded=0;fontColor=#C7C7C7;labelPadding=0;perimeter=rectanglePerimeter;collapsible=0;metaEdit=0;" parent="1" vertex="1">
                    <mxGeometry x="40" y="1590" width="360" height="130" as="geometry"/>
                </mxCell>
                <UserObject label="https://www.digital55.com/wp-content/uploads/2020/07/img6.png?x72330" link="https://www.digital55.com/wp-content/uploads/2020/07/img6.png?x72330" id="39">
                    <mxCell style="text;whiteSpace=wrap;html=1;fontColor=#ffffff;fillColor=#6d8764;strokeColor=#3A5431;" parent="1" vertex="1">
                        <mxGeometry x="480" y="1640" width="410" height="30" as="geometry"/>
                    </mxCell>
                </UserObject>
                <mxCell id="41" value="&lt;h1&gt;Paso 8&lt;/h1&gt;&lt;p&gt;&lt;span&gt;Traducir las utilidades de Angular&lt;/span&gt;&lt;br&gt;&lt;/p&gt;&lt;p&gt;&lt;span&gt;Esto puede verse en el link siguiente&lt;/span&gt;&lt;/p&gt;&lt;p&gt;&lt;span&gt;https://www.digital55.com/desarrollo-tecnologia/como-hacer-web-app-multiidioma-angular-textos-formatos-i/&lt;br&gt;&lt;/span&gt;&lt;/p&gt;" style="text;html=1;strokeColor=#314354;fillColor=#647687;spacing=5;spacingTop=-20;whiteSpace=wrap;overflow=hidden;rounded=0;fontColor=#C7C7C7;labelPadding=0;perimeter=rectanglePerimeter;collapsible=0;metaEdit=0;" parent="1" vertex="1">
                    <mxGeometry x="40" y="1780" width="360" height="140" as="geometry"/>
                </mxCell>
                <mxCell id="45" style="edgeStyle=orthogonalEdgeStyle;curved=1;html=1;exitX=0.5;exitY=1;exitDx=0;exitDy=0;entryX=0;entryY=0.5;entryDx=0;entryDy=0;fontColor=#C7C7C7;" edge="1" parent="1" source="43" target="44">
                    <mxGeometry relative="1" as="geometry"/>
                </mxCell>
                <mxCell id="53" style="edgeStyle=orthogonalEdgeStyle;curved=1;html=1;exitX=0.5;exitY=1;exitDx=0;exitDy=0;entryX=0;entryY=0.5;entryDx=0;entryDy=0;fontColor=#C7C7C7;" edge="1" parent="1" source="43" target="46">
                    <mxGeometry relative="1" as="geometry"/>
                </mxCell>
                <mxCell id="43" value="assets" style="rounded=0;whiteSpace=wrap;html=1;fontColor=#ffffff;fillColor=#6d8764;strokeColor=#3A5431;" vertex="1" parent="1">
                    <mxGeometry x="840" y="80" width="120" height="60" as="geometry"/>
                </mxCell>
                <mxCell id="44" value="i18n" style="rounded=0;whiteSpace=wrap;html=1;fontColor=#ffffff;fillColor=#647687;strokeColor=#314354;" vertex="1" parent="1">
                    <mxGeometry x="960" y="160" width="120" height="60" as="geometry"/>
                </mxCell>
                <mxCell id="48" style="edgeStyle=orthogonalEdgeStyle;curved=1;html=1;exitX=0.5;exitY=1;exitDx=0;exitDy=0;entryX=0;entryY=0.5;entryDx=0;entryDy=0;fontColor=#C7C7C7;" edge="1" parent="1" source="46" target="47">
                    <mxGeometry relative="1" as="geometry"/>
                </mxCell>
                <mxCell id="51" style="edgeStyle=orthogonalEdgeStyle;curved=1;html=1;exitX=0.5;exitY=1;exitDx=0;exitDy=0;entryX=0;entryY=0.5;entryDx=0;entryDy=0;fontColor=#C7C7C7;" edge="1" parent="1" source="46" target="49">
                    <mxGeometry relative="1" as="geometry"/>
                </mxCell>
                <mxCell id="52" style="edgeStyle=orthogonalEdgeStyle;curved=1;html=1;exitX=0.5;exitY=1;exitDx=0;exitDy=0;entryX=0;entryY=0.5;entryDx=0;entryDy=0;fontColor=#C7C7C7;" edge="1" parent="1" source="46" target="50">
                    <mxGeometry relative="1" as="geometry"/>
                </mxCell>
                <mxCell id="46" value="data" style="rounded=0;whiteSpace=wrap;html=1;fontColor=#ffffff;fillColor=#647687;strokeColor=#314354;" vertex="1" parent="1">
                    <mxGeometry x="960" y="240" width="120" height="60" as="geometry"/>
                </mxCell>
                <mxCell id="47" value="faqs" style="rounded=0;whiteSpace=wrap;html=1;fontColor=#ffffff;fillColor=#a0522d;strokeColor=#6D1F00;" vertex="1" parent="1">
                    <mxGeometry x="1090" y="320" width="120" height="30" as="geometry"/>
                </mxCell>
                <mxCell id="49" value="nav" style="rounded=0;whiteSpace=wrap;html=1;fontColor=#ffffff;fillColor=#a0522d;strokeColor=#6D1F00;" vertex="1" parent="1">
                    <mxGeometry x="1090" y="360" width="120" height="30" as="geometry"/>
                </mxCell>
                <mxCell id="50" value="returns-and-refunds" style="rounded=0;whiteSpace=wrap;html=1;fontColor=#ffffff;fillColor=#a0522d;strokeColor=#6D1F00;" vertex="1" parent="1">
                    <mxGeometry x="1090" y="400" width="120" height="30" as="geometry"/>
                </mxCell>
            </root>
        </mxGraphModel>
    </diagram>
</mxfile>
